<mxfile host="app.diagrams.net" agent="Mozilla/5.0 (Windows NT 10.0; Win64; x64) AppleWebKit/537.36 (KHTML, like Gecko) Chrome/131.0.0.0 Safari/537.36" version="25.0.1">
  <diagram id="C5RBs43oDa-KdzZeNtuy" name="Page-1">
    <mxGraphModel dx="1050" dy="530" grid="1" gridSize="10" guides="1" tooltips="1" connect="1" arrows="1" fold="1" page="1" pageScale="1" pageWidth="827" pageHeight="1169" math="0" shadow="0">
      <root>
        <mxCell id="WIyWlLk6GJQsqaUBKTNV-0" />
        <mxCell id="WIyWlLk6GJQsqaUBKTNV-1" parent="WIyWlLk6GJQsqaUBKTNV-0" />
        <mxCell id="IaV25FHAUjJpl8LdR5nX-2" value="" style="edgeStyle=orthogonalEdgeStyle;rounded=0;orthogonalLoop=1;jettySize=auto;html=1;" edge="1" parent="WIyWlLk6GJQsqaUBKTNV-1" source="IaV25FHAUjJpl8LdR5nX-0" target="IaV25FHAUjJpl8LdR5nX-1">
          <mxGeometry relative="1" as="geometry" />
        </mxCell>
        <mxCell id="IaV25FHAUjJpl8LdR5nX-0" value="Start" style="ellipse;whiteSpace=wrap;html=1;" vertex="1" parent="WIyWlLk6GJQsqaUBKTNV-1">
          <mxGeometry x="190" y="80" width="100" height="60" as="geometry" />
        </mxCell>
        <mxCell id="IaV25FHAUjJpl8LdR5nX-4" value="" style="edgeStyle=orthogonalEdgeStyle;rounded=0;orthogonalLoop=1;jettySize=auto;html=1;" edge="1" parent="WIyWlLk6GJQsqaUBKTNV-1" source="IaV25FHAUjJpl8LdR5nX-1" target="IaV25FHAUjJpl8LdR5nX-3">
          <mxGeometry relative="1" as="geometry" />
        </mxCell>
        <mxCell id="IaV25FHAUjJpl8LdR5nX-1" value="Nhập 1 số n" style="whiteSpace=wrap;html=1;" vertex="1" parent="WIyWlLk6GJQsqaUBKTNV-1">
          <mxGeometry x="180" y="180" width="120" height="60" as="geometry" />
        </mxCell>
        <mxCell id="IaV25FHAUjJpl8LdR5nX-6" value="" style="edgeStyle=orthogonalEdgeStyle;rounded=0;orthogonalLoop=1;jettySize=auto;html=1;" edge="1" parent="WIyWlLk6GJQsqaUBKTNV-1" source="IaV25FHAUjJpl8LdR5nX-3" target="IaV25FHAUjJpl8LdR5nX-5">
          <mxGeometry relative="1" as="geometry" />
        </mxCell>
        <mxCell id="IaV25FHAUjJpl8LdR5nX-11" value="" style="edgeStyle=orthogonalEdgeStyle;rounded=0;orthogonalLoop=1;jettySize=auto;html=1;" edge="1" parent="WIyWlLk6GJQsqaUBKTNV-1" source="IaV25FHAUjJpl8LdR5nX-3" target="IaV25FHAUjJpl8LdR5nX-10">
          <mxGeometry relative="1" as="geometry" />
        </mxCell>
        <mxCell id="IaV25FHAUjJpl8LdR5nX-3" value="n = 0 hoặc n=1" style="rhombus;whiteSpace=wrap;html=1;" vertex="1" parent="WIyWlLk6GJQsqaUBKTNV-1">
          <mxGeometry x="180" y="290" width="120" height="80" as="geometry" />
        </mxCell>
        <mxCell id="IaV25FHAUjJpl8LdR5nX-8" value="" style="edgeStyle=orthogonalEdgeStyle;rounded=0;orthogonalLoop=1;jettySize=auto;html=1;" edge="1" parent="WIyWlLk6GJQsqaUBKTNV-1" source="IaV25FHAUjJpl8LdR5nX-5" target="IaV25FHAUjJpl8LdR5nX-7">
          <mxGeometry relative="1" as="geometry" />
        </mxCell>
        <mxCell id="IaV25FHAUjJpl8LdR5nX-5" value="Giá trị là: 1" style="shape=parallelogram;perimeter=parallelogramPerimeter;whiteSpace=wrap;html=1;fixedSize=1;" vertex="1" parent="WIyWlLk6GJQsqaUBKTNV-1">
          <mxGeometry x="370" y="300" width="120" height="60" as="geometry" />
        </mxCell>
        <mxCell id="IaV25FHAUjJpl8LdR5nX-7" value="End" style="ellipse;whiteSpace=wrap;html=1;" vertex="1" parent="WIyWlLk6GJQsqaUBKTNV-1">
          <mxGeometry x="550" y="300" width="80" height="60" as="geometry" />
        </mxCell>
        <mxCell id="IaV25FHAUjJpl8LdR5nX-9" value="True" style="text;html=1;align=center;verticalAlign=middle;resizable=0;points=[];autosize=1;strokeColor=none;fillColor=none;" vertex="1" parent="WIyWlLk6GJQsqaUBKTNV-1">
          <mxGeometry x="310" y="310" width="50" height="30" as="geometry" />
        </mxCell>
        <mxCell id="IaV25FHAUjJpl8LdR5nX-13" value="" style="edgeStyle=orthogonalEdgeStyle;rounded=0;orthogonalLoop=1;jettySize=auto;html=1;" edge="1" parent="WIyWlLk6GJQsqaUBKTNV-1" source="IaV25FHAUjJpl8LdR5nX-10" target="IaV25FHAUjJpl8LdR5nX-12">
          <mxGeometry relative="1" as="geometry" />
        </mxCell>
        <mxCell id="IaV25FHAUjJpl8LdR5nX-10" value="multi = 1" style="whiteSpace=wrap;html=1;" vertex="1" parent="WIyWlLk6GJQsqaUBKTNV-1">
          <mxGeometry x="180" y="420" width="120" height="60" as="geometry" />
        </mxCell>
        <mxCell id="IaV25FHAUjJpl8LdR5nX-15" value="" style="edgeStyle=orthogonalEdgeStyle;rounded=0;orthogonalLoop=1;jettySize=auto;html=1;" edge="1" parent="WIyWlLk6GJQsqaUBKTNV-1" source="IaV25FHAUjJpl8LdR5nX-12" target="IaV25FHAUjJpl8LdR5nX-14">
          <mxGeometry relative="1" as="geometry" />
        </mxCell>
        <mxCell id="IaV25FHAUjJpl8LdR5nX-12" value="for(int i=2; i&amp;lt;=n; i++)" style="rhombus;whiteSpace=wrap;html=1;" vertex="1" parent="WIyWlLk6GJQsqaUBKTNV-1">
          <mxGeometry x="180" y="530" width="120" height="80" as="geometry" />
        </mxCell>
        <mxCell id="IaV25FHAUjJpl8LdR5nX-17" value="" style="edgeStyle=orthogonalEdgeStyle;rounded=0;orthogonalLoop=1;jettySize=auto;html=1;" edge="1" parent="WIyWlLk6GJQsqaUBKTNV-1" source="IaV25FHAUjJpl8LdR5nX-14" target="IaV25FHAUjJpl8LdR5nX-16">
          <mxGeometry relative="1" as="geometry" />
        </mxCell>
        <mxCell id="IaV25FHAUjJpl8LdR5nX-14" value="multi *= i" style="whiteSpace=wrap;html=1;" vertex="1" parent="WIyWlLk6GJQsqaUBKTNV-1">
          <mxGeometry x="180" y="660" width="120" height="60" as="geometry" />
        </mxCell>
        <mxCell id="IaV25FHAUjJpl8LdR5nX-19" value="" style="edgeStyle=orthogonalEdgeStyle;rounded=0;orthogonalLoop=1;jettySize=auto;html=1;" edge="1" parent="WIyWlLk6GJQsqaUBKTNV-1" source="IaV25FHAUjJpl8LdR5nX-16" target="IaV25FHAUjJpl8LdR5nX-18">
          <mxGeometry relative="1" as="geometry" />
        </mxCell>
        <mxCell id="IaV25FHAUjJpl8LdR5nX-16" value="Giai thừa của n là: multi" style="shape=parallelogram;perimeter=parallelogramPerimeter;whiteSpace=wrap;html=1;fixedSize=1;" vertex="1" parent="WIyWlLk6GJQsqaUBKTNV-1">
          <mxGeometry x="140" y="780" width="200" height="60" as="geometry" />
        </mxCell>
        <mxCell id="IaV25FHAUjJpl8LdR5nX-18" value="End" style="ellipse;whiteSpace=wrap;html=1;" vertex="1" parent="WIyWlLk6GJQsqaUBKTNV-1">
          <mxGeometry x="190" y="910" width="100" height="60" as="geometry" />
        </mxCell>
      </root>
    </mxGraphModel>
  </diagram>
</mxfile>
